# xmcd CD database file generated by OrangeCD 5.2
#
# Track frame offsets:
#	150
#	11318
#	25998
#	39150
#	49453
#	61815
#	78058
#	88370
#	98725
#	132065
#	140885
#	150520
#	159275
#	168503
#	179418
#	188655
#
# Disc length: 2639 seconds
#
# Revision: 2
# Processed by: cddbd v1.5.1PL0 Copyright (c) Steve Scherf et al.
# Submitted via: OrangeCD 5.2
#
DISCID=c20a4d10
DTITLE=Loretta Lynn - Coal Miner's Daughter
DYEAR=1992
DGENRE=Country
TTITLE0=Hey Loretta
TTITLE1=Coal Miner's Daughter
TTITLE2=Let Your Love Flow
TTITLE3=You're Lookin' At Country
TTITLE4=Me And Bobby Mcgee
TTITLE5=Medley - One's On The Way - The Pill
TTITLE6=Out Of My Head And Back In Bed
TTITLE7=Somebody, Somewhere
TTITLE8=Medley - I Fall To Pieces - Walkin' After Midnight - Crazy - Back In Bab
TTITLE8=y's Arms - She's Got You
TTITLE9=They Don't Make 'Em Like My Daddy
TTITLE10=You Ain't Woman Enough
TTITLE11=We've Come A Long Way Baby
TTITLE12=Your Squaw Is On The Warpath
TTITLE13=Spring Fever
TTITLE14=Fist City
TTITLE15=Y'all Come
EXTD=
EXTT0=
EXTT1=
EXTT2=
EXTT3=
EXTT4=
EXTT5=
EXTT6=
EXTT7=
EXTT8=
EXTT9=
EXTT10=
EXTT11=
EXTT12=
EXTT13=
EXTT14=
EXTT15=
PLAYORDER=
